# xmcd
#
# Track frame offsets: 
#        150
#        11015
#        25082
#        40635
#        59425
#        76390
#        87795
#        102215
#        118540
#        136880
#        152395
#
# Disc length: 2222 seconds
#
# Revision: 0
# Processed by: cddbd v1.5.2PL0 Copyright (c) Steve Scherf et al.
# Submitted via: ExactAudioCopy v0.99pb4
#
DISCID=7608ac0b
DTITLE=Billy Gilman - One voice
DYEAR=2000
DGENRE=Country
TTITLE0=Little things
TTITLE1=I think she likes me
TTITLE2=What's forever for
TTITLE3=One voice
TTITLE4=Spend another night
TTITLE5=Little bitty pretty one
TTITLE6=The snake song
TTITLE7=I wanna get to ya
TTITLE8=Oklahoma
TTITLE9=There's a hero
TTITLE10='Til I can make it on my own
EXTD=
EXTT0=
EXTT1=
EXTT2=
EXTT3=
EXTT4=
EXTT5=
EXTT6=
EXTT7=
EXTT8=
EXTT9=
EXTT10=
PLAYORDER=
